<svg xmlns="http://www.w3.org/2000/svg" width="30.974" height="31.433" viewBox="0 0 30.974 31.433">
  <g id="acrobat" transform="translate(-62.867 -54.193)">
    <g id="Group_22" data-name="Group 22" transform="translate(62.867 54.193)">
      <g id="Group_21" data-name="Group 21" transform="translate(0)">
        <path id="Path_20" data-name="Path 20" d="M93.576,75.512c-1.338-2.707-7.167-2.973-10.19-2.9a52.681,52.681,0,0,1-5.445-6.453c1.684-5.024,2.086-8.379,1.194-9.98-1.121-2.013-2.669-2.241-3.744-1.783-1.876.8-3.136,4.056-1.773,8.522a15.5,15.5,0,0,0,1.713,3.553,73.424,73.424,0,0,1-3.468,8.112c-3.067,1.052-6.548,2.809-8.377,5.646a3.828,3.828,0,0,0-.257,3.705c.916,1.972,2.925,2.5,5.331.079A22.183,22.183,0,0,0,71.375,80.3c.709-1.122,1.435-2.4,2.148-3.773a37.793,37.793,0,0,1,8.9-1.517c1.62,1.629,2.852,2.732,3.02,2.881,1.3,1.186,3.412,2.4,5.229,2.183a3.538,3.538,0,0,0,2.556-1.609A2.828,2.828,0,0,0,93.576,75.512Zm-24.125,3.4c-2.508,4-3.711,4.321-3.869,4.345a1.028,1.028,0,0,1-.209-.325,1.493,1.493,0,0,1,.1-1.426,11.145,11.145,0,0,1,4.622-3.657Q69.772,78.4,69.451,78.914Zm6.865-22.345a.081.081,0,0,1,.032-.006c.133,0,.429.242.719.764.272.489.342,2.28-.741,6.056a9.451,9.451,0,0,1-.446-1.16C74.843,58.822,75.772,56.8,76.316,56.569Zm-1.4,17.13c.739-1.587,1.438-3.233,2.062-4.859,1.049,1.387,2.212,2.74,3.333,3.959A41.179,41.179,0,0,0,74.913,73.7ZM91.27,77.137a1.16,1.16,0,0,1-.872.586c-1.169.14-2.864-1.13-3.365-1.584l-.013-.012c-.021-.018-.482-.431-1.209-1.121l.077,0c3.623.206,5.314,1.039,5.566,1.55C91.526,76.706,91.394,76.954,91.27,77.137Z" transform="translate(-62.867 -54.193)" fill="#ff0900"/>
      </g>
    </g>
  </g>
</svg>
