<svg id="fast" xmlns="http://www.w3.org/2000/svg" width="56.063" height="43.307" viewBox="0 0 56.063 43.307">
  <g id="Group_3" data-name="Group 3" transform="translate(3.032 13.441)">
    <g id="Group_2" data-name="Group 2">
      <rect id="Rectangle_3" data-name="Rectangle 3" width="6.438" height="3.285"/>
    </g>
  </g>
  <g id="Group_5" data-name="Group 5" transform="translate(3.032 26.581)">
    <g id="Group_4" data-name="Group 4">
      <rect id="Rectangle_4" data-name="Rectangle 4" width="6.438" height="3.285"/>
    </g>
  </g>
  <g id="Group_7" data-name="Group 7" transform="translate(0 20.011)">
    <g id="Group_6" data-name="Group 6" transform="translate(0 0)">
      <rect id="Rectangle_5" data-name="Rectangle 5" width="9.47" height="3.285"/>
    </g>
  </g>
  <g id="Group_9" data-name="Group 9" transform="translate(12.755 0)">
    <g id="Group_8" data-name="Group 8">
      <path id="Path_11" data-name="Path 11" d="M138.143,58.245A21.654,21.654,0,1,0,159.8,79.9,21.678,21.678,0,0,0,138.143,58.245Zm0,40.022A18.369,18.369,0,1,1,156.511,79.9,18.39,18.39,0,0,1,138.143,98.267Z" transform="translate(-116.489 -58.245)"/>
    </g>
  </g>
  <g id="Group_11" data-name="Group 11" transform="translate(32.184 11.86)">
    <g id="Group_10" data-name="Group 10">
      <path id="Path_12" data-name="Path 12" d="M297.215,177.167v-10.61H293.93V178.9l8.465,5.769,1.85-2.715Z" transform="translate(-293.93 -166.557)" fill="#f866a0"/>
    </g>
  </g>
</svg>
