<svg xmlns="http://www.w3.org/2000/svg" width="43.822" height="50.842" viewBox="0 0 43.822 50.842">
  <g id="Group_12" data-name="Group 12" transform="translate(-464.753 -970.738)">
    <g id="shield_1_" data-name="shield (1)" transform="translate(464.753 970.738)">
      <path id="Path_13" data-name="Path 13" d="M42.636,6.057H38.687A23.035,23.035,0,0,1,23.6.436a1.845,1.845,0,0,0-2.383,0A23.035,23.035,0,0,1,6.135,6.057H2.185A1.6,1.6,0,0,0,.5,7.547V25.421a21,21,0,0,0,6.467,15.4C10.614,44.5,15.211,47.07,18.9,49.132c.917.512,1.783.995,2.571,1.46a1.872,1.872,0,0,0,1.87,0c.763-.45,1.613-.923,2.513-1.424,7.352-4.1,18.463-10.284,18.463-23.747V7.547A1.6,1.6,0,0,0,42.636,6.057ZM40.951,25.421c0,11.819-9.762,17.256-16.889,21.226-.571.318-1.123.625-1.65.926-.546-.311-1.116-.63-1.707-.959-7.1-3.966-16.834-9.4-16.834-21.193V9.036H6.135A26.817,26.817,0,0,0,22.411,3.529,26.817,26.817,0,0,0,38.687,9.036h2.264Zm0,0" transform="translate(-0.5 0)"/>
    </g>
    <path id="Path_16" data-name="Path 16" d="M519.862,1059.071l8.521,8.147,13.738-13.007" transform="translate(-44.358 -65.318)" fill="none" stroke="#f866a0" stroke-width="4"/>
  </g>
</svg>
