<svg id="refresh" xmlns="http://www.w3.org/2000/svg" width="57.659" height="45.424" viewBox="0 0 57.659 45.424">
  <path id="Path_9" data-name="Path 9" d="M98.311,39.089a1.714,1.714,0,0,0-2.382.45l-3.5,5.132A22.712,22.712,0,0,0,54.17,33.415a1.714,1.714,0,0,0,2.424,2.424A19.28,19.28,0,0,1,89.2,46.014l-6.081-4.148A1.714,1.714,0,1,0,81.183,44.7l9.077,6.191h0a1.714,1.714,0,0,0,2.382-.45l6.117-8.969A1.714,1.714,0,0,0,98.311,39.089Z" transform="translate(-41.401 -26.762)" fill="#f866a0"/>
  <path id="Path_10" data-name="Path 10" d="M42.786,133.654a19.117,19.117,0,0,1-13.957,5.977A19.321,19.321,0,0,1,9.863,123.808l6.081,4.148a1.714,1.714,0,1,0,1.932-2.832L8.8,118.932h0a1.714,1.714,0,0,0-2.382.45L.3,128.351a1.714,1.714,0,1,0,2.832,1.932l3.5-5.132a22.762,22.762,0,0,0,22.2,17.909,22.516,22.516,0,0,0,16.438-7.039,1.714,1.714,0,1,0-2.481-2.366Z" transform="translate(0 -97.634)"/>
</svg>
