<svg xmlns="http://www.w3.org/2000/svg" width="22.761" height="20.005" viewBox="0 0 22.761 20.005">
  <path id="Path_3" data-name="Path 3" d="M181.116,31h-5.948a.667.667,0,0,0-.578,1l6.359,11h7.5l-6.757-11.67a.667.667,0,0,0-.577-.333Z" transform="translate(-166.743 -31)" fill="#fff"/>
  <path id="Path_4" data-name="Path 4" d="M6.848,75.947.09,87.618a.666.666,0,0,0-.01.651L2.961,93.6a.666.666,0,0,0,.577.35h.01a.667.667,0,0,0,.578-.333l6.468-11.192Z" transform="translate(0 -73.949)" fill="#fff"/>
  <path id="Path_5" data-name="Path 5" d="M141.074,331.325A.666.666,0,0,0,140.5,331H127.769l-3.853,6.668h13.7a.667.667,0,0,0,.587-.35l2.881-5.335A.668.668,0,0,0,141.074,331.325Z" transform="translate(-118.407 -317.663)" fill="#fff"/>
</svg>
