<svg xmlns="http://www.w3.org/2000/svg" width="19.691" height="20.005" viewBox="0 0 19.691 20.005">
  <path id="Path_6" data-name="Path 6" d="M13.127,86.9a1.662,1.662,0,0,1-.49,1.183l-3.55,3.55a1.674,1.674,0,0,1-2.367,0L5.536,90.453a1.674,1.674,0,0,1,0-2.367l3.55-3.55a1.662,1.662,0,0,1,1.183-.49,1.679,1.679,0,0,1,.168.008l1.329-1.329a3.35,3.35,0,0,0-3.864.628L4.353,86.9a3.347,3.347,0,0,0,0,4.734L5.536,92.82a3.347,3.347,0,0,0,4.734,0l3.55-3.55a3.348,3.348,0,0,0,.395-4.259l-1.226,1.226A1.669,1.669,0,0,1,13.127,86.9Z" transform="translate(-3.372 -73.795)" fill="#fff"/>
  <path id="Path_7" data-name="Path 7" d="M92.82,2.537,91.636,1.354a3.347,3.347,0,0,0-4.734,0L83.353,4.9a3.35,3.35,0,0,0-.517,4.067L84.1,7.7a1.681,1.681,0,0,1-.058-.432,1.662,1.662,0,0,1,.49-1.183l3.55-3.55a1.674,1.674,0,0,1,2.367,0L91.636,3.72a1.674,1.674,0,0,1,0,2.367l-3.55,3.55a1.665,1.665,0,0,1-1.616.432L85.2,11.338a3.35,3.35,0,0,0,4.067-.517l3.55-3.55A3.347,3.347,0,0,0,92.82,2.537Z" transform="translate(-74.109 -0.373)" fill="#fff"/>
  <path id="Path_8" data-name="Path 8" d="M0,0H11.242V1.674H0Z" transform="translate(5.33 13.176) rotate(-45)" fill="#fff"/>
</svg>
